<?xml version='1.0' encoding='utf-8'?>
<svg xmlns="http://www.w3.org/2000/svg" clip-rule="evenodd" fill-rule="evenodd" stroke-linecap="round" stroke-linejoin="round" stroke-miterlimit="1.5" version="1.1" viewBox="0 0 574 252"><ellipse cx="458.54" cy="182.1" rx="47.259" ry="44.799" fill="#181c25" stroke="#181c25" stroke-width=".51px"/><path d="m427.06 176.36c3.981-13.293 13.546-21.238 31.268-21.372 17.271 2.138 28.134 11.442 30.292 30.479-1.242 15.257-10.156 25.312-29.752 28.121-9.741 5e-3 -17.537-3.749-24.001-10.077-6.807-6.296-10.084-14.905-7.807-27.151z" fill="#babec9"/><path d="m465.98 159.62c6.938 2.67 16.889 11.276 17.996 17.112 8.037 42.354-55.026 40.673-52.041 2.287 0.49-6.299 7.47-16.945 16.984-19.272 6.094-1.49 12.018-2.068 17.061-0.127z" fill="#000308"/><path d="m432.08 186.26 20.909-0.727 2.753 1.514-7.446 19.024c-1.715-0.561-2.411-0.817-3.758-1.761l7.91-15.628-19.252 1.371c-1.01-1.36-0.939-2.406-1.116-3.793z" fill="#7f7f86"/><path d="m449.25 182.24-17.438 0.201c-0.252-1.751-0.172-3.432 0.34-5.021l17.815 0.483-6.756-15.619c0.92-0.827 1.954-1.352 3.081-1.628l5.729 14.642 1.239-1.361 2.045-0.621-4.356-13.99c1.383-0.306 2.777-0.619 3.401-0.525l4.305 14.619c1.217-0.298 2.364-0.089 3.427 0.732l13.272-8.565c1.558 0.875 2.593 1.939 3.584 3.019l-12.162 7.203c1.175 1.151 1.858 1.721 1.527 3.292l13.001-7.716 2.247 3.548-14.698 8.048c0.376 0.661-0.091 1.65-0.277 2.514l14.094 8.951c-0.492 1.467-1.226 2.786-2.298 3.9l-12.883-8.92c-0.191 1.111-0.812 1.728-1.79 1.935l12.827 9.409c-0.996 1.18-2.223 2.147-3.609 2.967l-13.496-10.292-5.23 14.813-3.945-0.919 4.753-14.138-2.927-0.256c-4.126-2.042-5.764-5.279-5.212-9.509l0.39-1.196z" fill="#7f7f86"/><path d="m451.26 182.3c1.012-0.032 1.861 0.818 1.895 1.897 0.034 1.08-0.76 1.982-1.772 2.014-1.012 0.031-1.862-0.819-1.896-1.898-0.033-1.079 0.761-1.981 1.773-2.013z" fill="none" stroke="#000" stroke-width=".66px"/><path d="m455.05 175.55c1.012-0.031 1.862 0.819 1.896 1.898s-0.761 1.981-1.773 2.013-1.861-0.818-1.895-1.897c-0.034-1.08 0.76-1.982 1.772-2.014z" fill="none" stroke="#000" stroke-width=".66px"/><path d="m463.47 178c1.012-0.032 1.861 0.818 1.895 1.898 0.034 1.079-0.76 1.981-1.772 2.013s-1.861-0.819-1.895-1.898 0.76-1.981 1.772-2.013z" fill="none" stroke="#000" stroke-width=".66px"/><path d="m463.84 186.36c1.013-0.032 1.862 0.819 1.896 1.898s-0.76 1.981-1.773 2.013c-1.012 0.032-1.861-0.819-1.895-1.898s0.76-1.981 1.772-2.013z" fill="none" stroke="#000" stroke-width=".66px"/><path d="m456 188.24c1.012-0.032 1.861 0.818 1.895 1.897 0.034 1.08-0.76 1.982-1.772 2.013-1.012 0.032-1.861-0.818-1.895-1.897s0.76-1.981 1.772-2.013z" fill="none" stroke="#000" stroke-width=".66px"/><path d="m458.45 180.99c1.686-0.053 3.097 1.194 3.146 2.783 0.05 1.589-1.278 2.922-2.965 2.975s-3.097-1.194-3.147-2.783 1.279-2.922 2.966-2.975z" fill="none" stroke="#000" stroke-width="1.39px"/><path d="m22.526 167.12-12.106-20.288c0.151-4.902 1.52-9.63 3.664-14.248-0.582-4.468-0.557-9.088-0-13.841 0.188-3.555 2.012-6.906 4.478-10.177 53.216-20.122 53.172-23.011-2.889-23.426 2.419-6.076 8.29-13.038 14.694-17.69l34.734-23.914c-4.58-1.474-8.28-8.124-10.715-13.539 84.011-12.353 160.3-17.262 228.38-14.248 16.376 2.977 28.76 6.102 37.452 9.363l0.728 3.644 89.239 45.207 17.098-0.407-31.602-9.623c4.093-2.143 47.105 6.296 93.008 15.522 27.736 4.403 41.672 11.817 49.836 20.49l-54.105-5.122-1.494 1.707h-92.897c8.238 19.321 3.109 50.601-4.909 84.466l-33.348-6.083-178.48-3.842c-13.731-25.338-31.41-39.562-52.824-43.273-22.51-1.898-39.475 2.325-51.171 13.233-8.652 7.994-12.514 17.403-15.474 27.96l-31.291-1.871z" fill="#9eaabb"/><path d="m158.36 98.04c-34.581-0.87-68.034-4.977-100.61-11.604" fill="none" stroke="#b3b5be" stroke-width=".51px"/><path d="m18.218 159.54 32.848 1c8.191-26.145 28.049-38.718 58.027-39.518 44.29 3.395 62.069 24.325 74.868 50.524l-10.671-0.167c-13.552-25.871-33.191-43.219-64.53-44.187-29.694-0.35-46.842 15.244-55.192 42.019l-31.515-2.001-2.835-3.668-1-4.002z" fill="#acb8c9" stroke="#acadb7" stroke-width=".51px"/><path d="m399.22 80.915c30.927 2.871 61.922 5.878 93.206 9.461l-62.297-6.323-4.364-8.943" fill="none" stroke="#979797" stroke-width=".51px"/><path d="m67.035 44.479c3.091-1.218 5.843-3.002 8.08-5.643 1.211-3.652 1.883-6.563 1.982-11.327" fill="none" stroke="#5f5f5f" stroke-width=".66px"/><path d="m181.72 162.93 206.62 3.736c-7.617-7.255-14.332-10.898-20.253-11.369l-171.74-6.36c-8.445 4.664-12.97 9.329-14.63 13.993z" fill="url(#b)"/><path d="m351 83.093c0.411-2.025 3.596-5.235 6.193-6.713l-0.583 0.647 6.836 3.521 15.958 1.479-0.066 0.866c-9.446 0.934-18.892 0.905-28.338 0.2z" fill="#5e6874"/><path d="m91.664 40.034 58.777-6.982c28.648-3.289 59.588-4.493 93.794-5.003 20.659-0.213 40.627-0.762 51.766 2.385 15.443 0.502 74.224 31.568 101.61 49.227" fill="none" stroke="#b3b5be" stroke-width="2.42px"/><path d="m379.25 81.796c1.853-0.298 2.154-1.432 1.639-3.005-1.015-6.179-6.36-11.396-13.933-16.118-4.462 0.176-8.037 0.959-9.766 3.005l-0.069 11.269c0.15 0.896 2.741 2.177 6.352 3.62 6.393 0.977 13.115 2.118 15.777 1.229z" fill="url(#a)"/><path d="m385.54 181.52c5.917-39.836 33.523-62.435 78.882-67.401 32.675 1.437 56.738 16.885 70.033 50.232 1.557 2.18 3.442 4.143 6.67 5.21 2.284-1.407 4.316-3.317 6.044-5.836l0.207-24.039 0.227-0.697c0.333 10.651-0.386 23.409-1.328 33.373l-5.672 5.006-16.193 0.893c-2.537-37.563-23.754-55.621-61.864-57.056-42.048 4.354-60.828 29.036-69.52 61.186l-7.486-0.871z" fill="#acb8c9"/><path d="m390.43 92.654 3.127 20.635 54.4 2.084c11.452-1.884 24.468-1.311 39.811 2.918 17.81 5.077 31.587 16.878 41.06 35.851l5.42 10.004c5.06-7.278 9.391-15.649 13.339-24.595 0.856-4.551 0.743-9.83-0.625-16.049-1.806-3.141-3.613-5.682-5.419-7.712l-9.588 5.003c-13.598-8.661-27.075-18.934-44.604-26.471l-96.921-1.668z" fill="#9eaabb"/><path d="m523.9 112.33c-3.721-2.499-6.639-5.354-8.261-8.786 0.948-0.801 3.247-1.602 7.343-2.404 2.346-0.057 4.692-0.06 7.037 0 0.296 1.913 0.287 3.522 0 4.852-0.855 0-1.501 0.103-1.773 0.103l-0.106-2.988c-1.638-0.631-3.083-0.753-4.371-0.568-0.325 3.325-0.243 6.583 0.131 9.791z" fill="#283a50"/><path d="m254.44 172.01c0.478-28.928-1.022-59.439-4.885-91.84" fill="none" stroke="#7b7b7b" stroke-width="1.1px"/><path d="m486.34 99.138c-2.584-0.999-5.34-4.407 0.382-3.955 4.894-0.32 10.233-0.362 16.292 0.046 3.337 7.277 9.688 13.047 17.196 18.238-4.588 0.077-20.302-7.903-33.87-14.329z" fill="#a05209"/><path d="m14.248 167.32c3.576 9.57 7.361 17.034 11.806 17.912 7.884 4.383 19.31 7.585 35.01 9.363-0.248-5.011 0.124-9.681 0.15-14.056 0.178-29.623 19.762-45.623 50.736-45.379 31.836 6.852 53.413 24.274 56.586 60.656l233.26-0.407c1.688-36.608 22.816-64.407 65.542-65.949 36.58 5.854 58.103 24.745 43.966 68.392l14.655-3.664 7.246-2.768c10.465-3.476 13.07-11.395 13.109-19.215l-5.895 4.885-15.879 0.683c-0.256-6.24-0.513-10.127-0.769-12.892-5.393-27.431-24.878-41.68-57.194-43.926-42.471 2.471-65.869 24.016-73.602 61.226l-7.165-0.651c-12.168-5.786-29.405-7.136-48.525-6.839l-163.14-3.924c-14.854-28.205-36.025-43.211-63.037-43.625-31.134-0.171-50.502 13.525-57.319 42.012-14.673-1.357-28.344-2.214-39.542-1.834z" fill="#0f0f0f"/><path d="m126.61 62.551c-19.9-4.468-34.466-10.35-34.534-22.112 17.791-3.063 36.62-4.791 56.005-5.805l-21.471 27.917z" fill="#031225"/><path d="m147.59 39.906 0.235 27.084-17.971-3.436 9.348-12.785 8.388-10.863z" fill="#031225"/><path d="m236.33 79.347c-2.269 0.354-4.953 0.071-9.136-0.021-22.347-0.487-66.85-3.955-76.985-11.567l-0.512-27.917c1.884-3.757 1.986-4.611 4.696-7.086 28.733-2.99 54.672-4.185 79.931-3.7l2.006 50.291z" fill="#4a5c72"/><path d="m250.03 29 3.648 51.9 98.483 1.563c0.698-2.546 2.169-4.576 4.951-5.732v-10.942c0.493-1.148 3.795-2.813 8.458-3.267-23.057-12.845-44.966-24.245-67.861-30.864-6.198-1-12.387-1.673-18.65-2.103-9.414-0.645-18.995-0.738-29.029-0.555z" fill="#4a5c72"/><path d="m385.25 181.21c8.488-38.006 14.329-71.631 0.521-96.399" fill="none" stroke="#7b7b7b" stroke-width="1px"/><path d="m234.01 29.355 2.501 50.023 16.841 1.501-3.335-51.357-16.007-0.167z" fill="#031829" stroke="#031829" stroke-width=".81px"/><path d="m533.25 120.41c-6.504-4.889-15.733-11.295-18.177-16.819 0.517-1.186 3.981-2.032 7.556-2.866l-16.764-1.088c5.16 6.455 10.097 11.606 14.244 14.241 5.601 3.559 10.429 6.173 13.141 6.532z" fill="#a0a6be" stroke="#a0a6be" stroke-width=".81px"/><path d="m502.87 95.146 13.864 0.341 20.49 4.577-0.205 13.864-5.135 2.129 0.035-9.642c-0.62-0.199-1.471-0.176-1.868-0.42 0.176-2.175 0.209-3.793-0.043-4.837l-7.288-0.023c0.332-0.227 0.415-0.489 0.105-0.808l-17.291-0.946c-1.275-1.315-2.118-2.738-2.664-4.235z" fill="#8a99ac"/><path d="m523.84 112.46c-0.325-3.415-0.369-6.717-0.112-9.899 1.353-0.244 2.789-0.154 4.375 0.534l0.107 2.988c1.338-0.125 2.631-0.139 3.735 0.32 0.308 3.901 0.295 7.48-0.213 10.565-0.812 0.879-2.125-0.247-3.522-1.707-0.593-0.783-0.65-1.565-0.427-2.348l-3.943-0.453z" fill="#bad3e9"/><path d="m520.38 109.67c3.796 3.549 8.614 7.098 13.247 10.45 3.384-0.575 5.943-1.907 7.274-4.364-0.09-1.633-0.244-3.27-0.923-4.952l-0.011-5.772c-0.144-1.357-0.51-2.683-0.996-3.991-0.491-0.468-1.105-0.749-1.791-0.923l-0.168 13.82-5.127 2.106-0.132 0.915c-0.212 0.194-0.435 0.309-0.671 0.308-0.312 2e-3 -0.62-0.125-0.863-0.252-1.355-0.713-2.002-1.575-2.327-2.322-0.284-0.511-0.303-1.106-0.122-1.764l-3.928-0.475-0.027-0.195-3.435-2.589z" fill="#282f39"/><path d="m396.01 64.085c7.336-0.998 13.899 0.71 20.343 2.835 7.618 2.398 11.893 5.273 10.172 9.004-1.963 1.718-10.877 1.062-18.176-1.667l-87.791-45.771-0.166-2.835c26.315 10.592 51.526 23.395 75.618 38.434z" fill="#0c1524"/><path d="m388.5 168.88c10.975-26.046 32.293-48.088 74.252-54.522-4.466-0.119-9.796 0.209-14.793 0.524l-53.758-2.268c0.89 18.442-2.317 38.893-5.701 56.266z" fill="#9eaabb"/><path d="m541.18 169.27c-3.178-0.823-5.269-2.734-6.669-5.336l13.172-24.345c0.867 8.349 1.309 16.555-0.5 24.012-1.177 2.713-3.046 4.735-6.003 5.669z" fill="#2c3339"/><path d="m152.11 33.052-3.127 6.044 0.417 28.972c-17.522-4.307-31.815-8.615-45.438-12.923-9.475-3.065-13.174-8.259-12.089-15.215" fill="none" stroke="#b3b5be" stroke-width="2.42px"/><path d="m128.76 61.815 21.886-28.555" fill="none" stroke="#b3b5be" stroke-width="2.42px"/><path d="m120.26 127.39-10.096-29.962v-9.444l40.384-55.365" fill="none" stroke="#7b7b7b" stroke-width=".81px"/><path d="m15.886 85.084c-1.875 8.727-0.962 17.453 1.167 26.179l5.461 0.084c21.9-7.171 39.03-18.365 37.267-23.303-2.084-3.231-22.204-2.848-43.895-2.96z" fill="#460315"/><path d="m22.514 111.35c2.002 8.963 5.993 15.939 12.998 19.9 14.737 5.014 27.644 7.284 37.934 5.628" fill="none" stroke="#979797" stroke-width=".51px"/><path d="m31.278 66.866c8.272-9.797 17.588-19.585 27.853-28.813 3.198 1.821 6.711 3.704 7.79 6.726-10.854 8.061-23.067 14.6-35.643 22.087z" fill="#233040"/><path d="m149.9 68.388c27.541 8.766 63.203 11.796 103.84 12.593l97.539 1.814" fill="none" stroke="#b3b5be" stroke-width="2.42px"/><path d="m20.853 164.31-8.964-4.184c-0.979-4.382-1.468-8.679-1.537-13.062 4.094 5.777 7.545 11.469 10.501 17.246z" fill="#86878c"/><path d="m22.475 167.21c-0.142-1.622-0.711-2.817-2.22-3.073-3.063-1.768-5.986-3.3-8.366-3.927 0.276 2.258 0.975 4.6 2.39 7.086l8.196-0.086z" fill="#b6c3d4"/><path d="m379 81.783c1.004-0.078 1.729-0.434 2.049-1.195 0.023-7.021-6.333-12.396-13.403-17.587 9.16 5.431 18.312 10.867 26.551 16.989 0.3 0.751-2.72 1.697-10.16 2.903h-4.78l-0.257-1.11z" fill="#6c7784"/><path d="m160.41 98.039c78.118 4.936 156.75 9.7 232.66 15.372l0.781 5.472c-75.347-4.773-155.14-13.856-233.44-20.844z" fill="#828f9f"/><ellipse cx="114.55" cy="184.14" rx="46.852" ry="43.578" fill="#181c25" stroke="#181c25" stroke-width=".51px"/><path d="m84.988 177.83c4.22-12.924 13.635-20.426 30.639-20.01 16.503 2.632 26.642 12.098 28.138 30.848-1.652 14.935-10.506 24.527-29.389 26.679-9.344-0.295-16.709-4.221-22.719-10.63-6.339-6.39-9.223-14.94-6.669-26.887z" fill="#babec9"/><path d="m122.82 162.6c6.576 2.835 15.861 11.588 16.747 17.35 6.431 41.814-54.012 38.217-49.99 0.637 0.66-6.167 7.677-16.399 16.874-18.389 5.89-1.274 11.591-1.658 16.369 0.402z" fill="#000308"/><path d="m89.496 187.7 20.08-0.068 2.595 1.571-7.717 18.441c-1.628-0.604-2.288-0.877-3.552-1.845l8.059-15.093-18.508 0.751c-0.928-1.366-0.828-2.391-0.957-3.757z" fill="#7f7f86"/><path d="m106.09 184.29-16.733-0.341c-0.189-1.726-0.061-3.373 0.478-4.917l17.074 1.024-6.01-15.538c0.908-0.782 1.915-1.266 3.005-1.502l5.054 14.547 1.23-1.298 1.98-0.546-3.756-13.865c1.335-0.257 2.682-0.521 3.278-0.409l3.688 14.479c1.177-0.254 2.271-0.014 3.266 0.825l12.99-7.996c1.468 0.907 2.428 1.983 3.346 3.073l-11.884 6.693c1.093 1.167 1.73 1.748 1.366 3.279l12.704-7.172 2.049 3.552-14.343 7.444c0.341 0.661-0.137 1.617-0.342 2.459l13.25 9.22c-0.515 1.425-1.26 2.697-2.322 3.757l-12.089-9.152c-0.216 1.084-0.831 1.67-1.775 1.844l12.02 9.63c-0.99 1.127-2.197 2.037-3.551 2.8l-12.636-10.518-5.463 14.377-3.757-1.024 4.986-13.728-2.8-0.342c-3.896-2.131-5.37-5.359-4.713-9.493l0.41-1.162z" fill="#7f7f86"/><ellipse cx="108.02" cy="186.33" rx="1.761" ry="1.921" fill="none" stroke="#000" stroke-width=".66px"/><ellipse cx="111.86" cy="179.82" rx="1.761" ry="1.921" fill="none" stroke="#000" stroke-width=".66px"/><ellipse cx="119.86" cy="182.49" rx="1.761" ry="1.921" fill="none" stroke="#000" stroke-width=".66px"/><ellipse cx="119.97" cy="190.71" rx="1.761" ry="1.921" fill="none" stroke="#000" stroke-width=".66px"/><ellipse cx="112.39" cy="192.31" rx="1.761" ry="1.921" fill="none" stroke="#000" stroke-width=".66px"/><ellipse cx="114.95" cy="186.17" rx="2.935" ry="2.828" fill="none" stroke="#000" stroke-width="1.39px"/><path d="m61.156 194.44 8.025 0.512c-7.345-56.791 57.199-67.225 85.647-34.047 1.094-6.31-16.153-20.986-42.789-25.885-22.032 0.091-39.354 6.14-47.041 24.673-4.354 10.497-5.027 22.339-3.842 34.747z"/><path d="m168.7 195.65-8.913-3.678c2.531-14.041-3.03-30.66-12.217-40.673 8.553 4.388 20.603 24.308 21.13 44.351z"/><path d="m511.82 197.43-4.835-2.135c1.742-29.691-9.59-49.123-41.82-58.093-12.586-1.374-22.349 1.193-29.932 5.375-26.932 14.853-26.949 42.518-21.292 55.82l-12.439-3.702c3.309-39.294 23.282-62.842 65.364-65.497 50.697 8.416 53.759 35.944 44.954 68.232z" stroke="#000" stroke-width="1.39px"/><path d="m126.14 97.546c-1.578-1.04-1.409-3.128-0.208-5.836 14.421-0.873 26.788-0.591 32.306 3.543l0.209 3.961c-12.489 0.59-23.153-0.035-32.307-1.668z" fill="#84939e"/><path d="m127.08 97.843c0.78 4.674 5.89 6.942 14.673 7.17 10.673-0.333 15.231-3.113 17.008-7.004l-8.337 1.501c-1.1 2.058-3.958 2.611-8.17 2.001-3.801-0.153-6.205-1.237-7.337-3.168l-7.837-0.5z" fill="#34383e"/><path d="m258.37 105.55c-1.578-1.04-1.409-3.129-0.208-5.836 14.421-0.873 26.788-0.591 32.307 3.543l0.208 3.96c-12.489 0.591-23.153-0.034-32.307-1.667z" fill="#84939e"/><path d="m259.3 105.85c0.78 4.674 5.89 6.943 14.673 7.17 10.673-0.333 15.231-3.112 17.008-7.003l-8.337 1.501c-1.1 2.058-3.957 2.61-8.17 2.001-3.801-0.153-6.205-1.237-7.337-3.168l-7.837-0.501z" fill="#34383e"/><path d="m432.94 76.814 89.834 15.007-37.104-12.722 24.197 8.989-76.927-11.274z" fill="#c7cad4"/><defs><radialGradient id="b" cx="0" cy="0" r="1" gradientTransform="matrix(206.62 0 0 17.73 181.72 157.8)" gradientUnits="userSpaceOnUse"><stop stop-color="#bdc8d5" offset="0"/><stop stop-color="#b1bcc5" offset=".4"/><stop stop-color="#aeb9c2" offset="1"/></radialGradient><radialGradient id="a" cx="0" cy="0" r="1" gradientTransform="matrix(23.768 0 0 19.124 357.12 72.234)" gradientUnits="userSpaceOnUse"><stop stop-color="#bbc5d0" offset="0"/><stop stop-color="#b5bfca" offset=".58"/><stop stop-color="#a7b1be" offset=".8"/><stop stop-color="#9aa4b2" offset="1"/></radialGradient></defs></svg>