<svg width="800" height="520" viewBox="0 0 800 520" fill="none" xmlns="http://www.w3.org/2000/svg">
  <defs>
    <linearGradient id="bg" x1="0" y1="0" x2="0" y2="1">
      <stop offset="0%" stop-color="#E3F2FD"/>
      <stop offset="100%" stop-color="#FFFFFF"/>
    </linearGradient>
  </defs>
  <rect x="0" y="0" width="800" height="520" rx="24" fill="url(#bg)"/>

  <!-- Shelves / inventory boxes -->
  <g opacity="0.9">
    <rect x="60" y="90" width="300" height="16" rx="8" fill="#BBDEFB"/>
    <rect x="60" y="210" width="300" height="16" rx="8" fill="#BBDEFB"/>
    <rect x="60" y="330" width="300" height="16" rx="8" fill="#BBDEFB"/>

    <rect x="80" y="120" width="90" height="70" rx="10" fill="#90CAF9"/>
    <rect x="185" y="120" width="90" height="70" rx="10" fill="#64B5F6"/>
    <rect x="80" y="240" width="90" height="70" rx="10" fill="#64B5F6"/>
    <rect x="185" y="240" width="90" height="70" rx="10" fill="#42A5F5"/>
    <rect x="80" y="360" width="90" height="70" rx="10" fill="#90CAF9"/>
    <rect x="185" y="360" width="90" height="70" rx="10" fill="#64B5F6"/>

    <!-- small labels on boxes -->
    <rect x="100" y="150" width="50" height="10" rx="5" fill="#E3F2FD"/>
    <rect x="205" y="150" width="50" height="10" rx="5" fill="#E3F2FD"/>
    <rect x="100" y="270" width="50" height="10" rx="5" fill="#E3F2FD"/>
    <rect x="205" y="270" width="50" height="10" rx="5" fill="#E3F2FD"/>
    <rect x="100" y="390" width="50" height="10" rx="5" fill="#E3F2FD"/>
    <rect x="205" y="390" width="50" height="10" rx="5" fill="#E3F2FD"/>
  </g>

  <!-- Clipboard -->
  <g>
    <rect x="520" y="70" width="170" height="220" rx="16" fill="#FFFFFF" stroke="#90CAF9" stroke-width="3"/>
    <rect x="575" y="60" width="60" height="24" rx="8" fill="#90CAF9"/>
    <rect x="540" y="110" width="130" height="10" rx="5" fill="#BBDEFB"/>
    <rect x="540" y="140" width="130" height="10" rx="5" fill="#BBDEFB"/>
    <rect x="540" y="170" width="100" height="10" rx="5" fill="#E3F2FD"/>
    <rect x="540" y="200" width="120" height="10" rx="5" fill="#E3F2FD"/>
  </g>

  <!-- Car -->
  <g>
    <ellipse cx="520" cy="400" rx="250" ry="30" fill="#E3F2FD"/>
    <path d="M390 360 C420 300 540 300 620 320 C660 330 700 360 700 360 L700 400 L390 400 Z" fill="#42A5F5"/>
    <rect x="520" y="332" width="110" height="40" rx="6" fill="#E3F2FD"/>
    <circle cx="460" cy="400" r="30" fill="#263238"/>
    <circle cx="460" cy="400" r="16" fill="#90CAF9"/>
    <circle cx="640" cy="400" r="30" fill="#263238"/>
    <circle cx="640" cy="400" r="16" fill="#90CAF9"/>
    <rect x="395" y="380" width="35" height="8" rx="4" fill="#E3F2FD"/>
    <rect x="690" y="380" width="35" height="8" rx="4" fill="#E3F2FD"/>
  </g>

  <!-- Title text (for fallback if image used alone) -->
  <text x="400" y="500" text-anchor="middle" font-family="'Inter', 'Segoe UI', Arial" font-size="22" fill="#1976d2">Used Car Inventory Management</text>
</svg>